<!-- pricing-table icon -->
<svg xmlns="http://www.w3.org/2000/svg" viewBox="0 -64 1024 1024">
  <path d="M960 896h-128c0 35.328-28.672 64-64 64h-512c-35.328 0-64-28.672-64-64h-128c-35.328 0-64-28.672-64-64v-768c0-35.328 28.672-64 64-64h128c0-35.328 28.672-64 64-64h512c35.328 0 64 28.672 64 64h128c35.328 0 64 28.672 64 64v768c0 35.328-28.672 64-64 64zM960 832v-128h-128v128h128zM256 896h512v-128h-512v128zM192 832v-128h-128v128h128zM64 64v576h128v-64h-32c-17.664 0-32-14.336-32-32s14.336-32 32-32h32v-64h-32c-17.664 0-32-14.336-32-32s14.336-32 32-32h32v-64h-32c-17.664 0-32-14.336-32-32s14.336-32 32-32h32v-64h-32c-17.664 0-32-14.336-32-32s14.336-32 32-32h32v-64h-128zM768 0h-512v704h512v-704zM832 64v64h32c17.664 0 32 14.336 32 32s-14.336 32-32 32h-32v64h32c17.664 0 32 14.336 32 32s-14.336 32-32 32h-32v64h32c17.664 0 32 14.336 32 32s-14.336 32-32 32h-32v64h32c17.664 0 32 14.336 32 32s-14.336 32-32 32h-32v64h128v-576h-128zM672 640h-320c-17.664 0-32-14.336-32-32s14.336-32 32-32h320c17.664 0 32 14.336 32 32s-14.336 32-32 32zM672 512h-320c-17.664 0-32-14.336-32-32s14.336-32 32-32h320c17.664 0 32 14.336 32 32s-14.336 32-32 32zM672 384h-320c-17.664 0-32-14.336-32-32s14.336-32 32-32h320c17.664 0 32 14.336 32 32s-14.336 32-32 32zM640 256h-256c-35.328 0-64-28.672-64-64v-64c0-35.328 28.672-64 64-64h256c35.328 0 64 28.672 64 64v64c0 35.328-28.672 64-64 64zM640 128h-256v64h256v-64z"/>
</svg>
