<!-- plus-fill icon -->
<svg xmlns="http://www.w3.org/2000/svg" viewBox="0 -64 1024 1024">
  <path d="M543.466 888.532c-260.668 0-471.998-211.33-471.998-471.998s211.33-471.998 471.998-471.998 471.998 211.328 471.998 471.998-211.328 471.998-471.998 471.998zM795.198 385.068h-220.266v-220.266c0-17.37-14.096-31.466-31.466-31.466s-31.466 14.096-31.466 31.466v220.266h-220.266c-17.37 0-31.466 14.096-31.466 31.466s14.096 31.466 31.466 31.466h220.266v220.266c0 17.37 14.096 31.466 31.466 31.466s31.466-14.096 31.466-31.466v-220.266h220.266c17.37 0 31.466-14.096 31.466-31.466s-14.096-31.466-31.466-31.466z"/>
</svg>
