<!-- apps icon -->
<svg xmlns="http://www.w3.org/2000/svg" viewBox="0 -64 1024 1024">
  <path d="M323 681.408c0-29.712-24.104-53.816-53.816-53.816h-100.952c-29.744 0-53.816 24.104-53.816 53.816v100.952c0 29.712 24.064 53.816 53.816 53.816h100.952c29.712 0 53.816-24.104 53.816-53.816v-100.952zM610.376 681.408c0-29.712-24.104-53.816-53.816-53.816h-100.952c-29.712 0-53.816 24.104-53.816 53.816v100.952c0 29.712 24.104 53.816 53.816 53.816h100.952c29.712 0 53.816-24.104 53.816-53.816v-100.952zM897.712 681.408c0-29.712-24.064-53.816-53.816-53.816h-100.952c-29.712 0-53.816 24.104-53.816 53.816v100.952c0 29.712 24.104 53.816 53.816 53.816h100.952c29.744 0 53.816-24.104 53.816-53.816v-100.952zM323 400.824c0-29.712-24.104-53.816-53.816-53.816h-100.952c-29.744 0-53.816 24.104-53.816 53.816v100.912c0 29.712 24.064 53.816 53.816 53.816h100.952c29.712 0 53.816-24.104 53.816-53.816v-100.912zM610.376 400.824c0-29.712-24.104-53.816-53.816-53.816h-100.952c-29.712 0-53.816 24.104-53.816 53.816v100.912c0 29.712 24.104 53.816 53.816 53.816h100.952c29.712 0 53.816-24.104 53.816-53.816v-100.912zM897.712 400.824c0-29.712-24.064-53.816-53.816-53.816h-100.952c-29.712 0-53.816 24.104-53.816 53.816v100.912c0 29.712 24.104 53.816 53.816 53.816h100.952c29.744 0 53.816-24.104 53.816-53.816v-100.912zM323 120.168c0-29.712-24.104-53.816-53.816-53.816h-100.952c-29.744 0-53.816 24.104-53.816 53.816v100.952c0 29.712 24.064 53.816 53.816 53.816h100.952c29.712 0 53.816-24.104 53.816-53.816v-100.952zM610.376 120.168c0-29.712-24.104-53.816-53.816-53.816h-100.952c-29.712 0-53.816 24.104-53.816 53.816v100.952c0 29.712 24.104 53.816 53.816 53.816h100.952c29.712 0 53.816-24.104 53.816-53.816v-100.952zM897.712 120.168c0-29.712-24.064-53.816-53.816-53.816h-100.952c-29.712 0-53.816 24.104-53.816 53.816v100.952c0 29.712 24.104 53.816 53.816 53.816h100.952c29.744 0 53.816-24.104 53.816-53.816v-100.952z"/>
</svg>
