<!-- user-id icon -->
<svg xmlns="http://www.w3.org/2000/svg" viewBox="0 -64 1024 1024">
  <path d="M930.134 806.402h-298.668v-59.732c32.948 0 59.732-26.788 59.732-59.732s-26.788-59.732-59.732-59.732h-238.932c-32.948 0-59.732 26.788-59.732 59.732s26.788 59.732 59.732 59.732v59.732h-298.668c-32.948 0-59.732-26.788-59.732-59.732v-657.072c0-32.948 26.788-59.732 59.732-59.732h836.27c32.948 0 59.732 26.788 59.732 59.732v657.072c0 32.948-26.788 59.732-59.732 59.732zM482.132 507.732h363.35c16.52 0 29.868-13.348 29.868-29.868s-13.348-29.868-29.868-29.868h-363.35c-16.52 0-29.868 13.348-29.868 29.868s13.348 29.868 29.868 29.868zM482.132 388.268h363.35c16.52 0 29.868-13.348 29.868-29.868s-13.348-29.868-29.868-29.868h-363.35c-16.52 0-29.868 13.348-29.868 29.868s13.348 29.868 29.868 29.868zM482.132 268.798h363.35c16.52 0 29.868-13.348 29.868-29.868s-13.348-29.868-29.868-29.868h-363.35c-16.52 0-29.868 13.348-29.868 29.868s13.348 29.868 29.868 29.868zM392.532 236.038c0-87.452-236.132-87.452-236.132 0s52.83 158.292 118.070 158.292c65.24 0 118.070-70.84 118.070-158.292zM345.12 495.32c0-39.852-32.292-72.148-72.15-72.148s-72.15 32.292-72.15 72.15c0.092 39.852 32.292 72.15 72.15 72.15s72.15-32.292 72.15-72.15zM452.268 925.87h119.468v-238.932h-119.468v238.932z"/>
</svg>
