<!-- icon_trash_alt icon -->
<svg xmlns="http://www.w3.org/2000/svg" viewBox="0 -64 1024 1024">
  <path d="M832 896h-128c0 35.328-28.672 64-64 64h-192c-35.328 0-64-28.672-64-64h-128c-35.328 0-64-28.672-64-64h704c0 35.328-28.672 64-64 64zM192 0c0-35.328 28.672-64 64-64h576c35.328 0 64 28.672 64 64v768h-704v-768zM256 704h576v-704h-576v704zM352 640c-17.664 0-32-14.336-32-32v-512c0-17.664 14.336-32 32-32s32 14.336 32 32v512c0 17.664-14.336 32-32 32zM544 640c-17.664 0-32-14.336-32-32v-512c0-17.664 14.336-32 32-32s32 14.336 32 32v512c0 17.664-14.336 32-32 32zM736 640c-17.664 0-32-14.336-32-32v-512c0-17.664 14.336-32 32-32s32 14.336 32 32v512c0 17.664-14.336 32-32 32z"/>
</svg>
