<!-- icon_headphones icon -->
<svg xmlns="http://www.w3.org/2000/svg" viewBox="0 -64 1024 1024">
  <path d="M960 320v128c0 294.144-225.344 448-448 448-217.216 0-448-156.992-448-448v-128c-35.328 0-64-28.672-64-64v-128c0-35.328 28.672-64 64-64 0-35.328 28.672-64 64-64s64 28.672 64 64v256c0 35.328-28.672 64-64 64v64c0 252.096 193.216 384 384 384 184.96 0 384-120.128 384-384v-64c-35.328 0-64-28.672-64-64v-256c0-35.328 28.672-64 64-64s64 28.672 64 64c35.328 0 64 28.672 64 64v128c0 35.328-28.672 64-64 64z"/>
</svg>
