<!-- arrow_left icon -->
<svg xmlns="http://www.w3.org/2000/svg" viewBox="0 -64 1024 1024">
  <path d="M128 479.872c0-4.096 0.896-8.192 2.496-12.096 1.536-3.776 3.84-7.168 6.656-10.048 0.064-0.128 0.128-0.256 0.192-0.384l192-192c12.48-12.48 32.768-12.48 45.248 0s12.48 32.768 0 45.248l-137.344 137.408h626.752c17.664 0 32 14.336 32 32s-14.336 32-32 32h-626.752l137.344 137.344c12.48 12.48 12.48 32.768 0 45.248s-32.768 12.48-45.248 0l-192-192c-0.064-0.064-0.128-0.256-0.192-0.32-2.816-2.88-5.12-6.272-6.656-10.048-1.664-3.904-2.496-8.064-2.496-12.224v0c0-0.064 0-0.064 0-0.128z"/>
</svg>
