<!-- icon_contacts_alt icon -->
<svg xmlns="http://www.w3.org/2000/svg" viewBox="0 -64 1024 1024">
  <path d="M832 960h-768c-35.328 0-64-28.672-64-64v-896c0-35.328 28.672-64 64-64h768c35.328 0 64 28.672 64 64v896c0 35.328-28.672 64-64 64zM64 896h128v-896h-128v896zM832 0h-576v896h576v-896zM443.584 616.512c0 0 0 0 0 0 0-53.514 43.382-96.896 96.896-96.896s96.896 43.382 96.896 96.896c0 0 0 0 0 0s0 0 0 0c0 53.514-43.382 96.896-96.896 96.896s-96.896-43.382-96.896-96.896c0 0 0 0 0 0zM542.464 480.896c-87.488 0-158.464-95.168-158.464-212.544s316.992-117.376 316.992 0-70.976 212.544-158.528 212.544zM960 896h64v-192h-64zM960 640h64v-192h-64zM960 384h64v-192h-64z"/>
</svg>
