<!-- expand icon -->
<svg xmlns="http://www.w3.org/2000/svg" viewBox="0 -64 1024 1024">
  <path d="M241.774 650.668v-472.894c0-37.292 30.266-67.556 67.556-67.556h472.894c37.292 0 67.556 30.266 67.556 67.556v472.894c0 37.292-30.266 67.556-67.556 67.556h-472.894c-37.292 0-67.556-30.266-67.556-67.556zM782.226 177.774h-472.894v472.894h472.894v-472.894zM410.666 380.444h101.334v-101.334c0-18.646 15.132-33.778 33.778-33.778s33.778 15.132 33.778 33.778v101.334h101.334c18.646 0 33.778 15.132 33.778 33.778s-15.132 33.778-33.778 33.778h-101.334v101.334c0 18.646-15.132 33.778-33.778 33.778s-33.778-15.132-33.778-33.778v-101.334h-101.334c-18.646 0-33.778-15.132-33.778-33.778s15.132-33.778 33.778-33.778z"/>
</svg>
