<!-- icon_menu-square_alt icon -->
<svg xmlns="http://www.w3.org/2000/svg" viewBox="0 -64 1024 1024">
  <path d="M960 896h-832c-35.328 0-64-28.672-64-64v-832c0-35.328 28.672-64 64-64h832c35.328 0 64 28.672 64 64v832c0 35.328-28.672 64-64 64zM800 192h-512c-17.664 0-32 14.336-32 32s14.336 32 32 32h512c17.664 0 32-14.336 32-32s-14.336-32-32-32zM800 384h-512c-17.664 0-32 14.336-32 32s14.336 32 32 32h512c17.664 0 32-14.336 32-32s-14.336-32-32-32zM800 576h-512c-17.664 0-32 14.336-32 32s14.336 32 32 32h512c17.664 0 32-14.336 32-32s-14.336-32-32-32z"/>
</svg>
