<!-- social_flickr_circle icon -->
<svg xmlns="http://www.w3.org/2000/svg" viewBox="0 -64 1024 1024">
  <path d="M512 960c-282.752 0-512-229.248-512-512s229.248-512 512-512 512 229.248 512 512c0 282.816-229.248 512-512 512zM323.584 319.744c-71.744 0-129.856 58.112-129.856 129.856s58.112 129.856 129.856 129.856c71.744 0 129.856-58.112 129.856-129.856s-58.112-129.856-129.856-129.856zM701.76 319.744c-71.744 0-129.856 58.112-129.856 129.856s58.112 129.856 129.856 129.856c71.744 0 129.856-58.112 129.856-129.856s-58.112-129.856-129.856-129.856z"/>
</svg>
