<!-- icon_ribbon_alt icon -->
<svg xmlns="http://www.w3.org/2000/svg" viewBox="0 -64 1024 1024">
  <path d="M167.488-59.136c7.936-3.264 16.256-4.864 24.512-4.864 16.64 0 33.024 6.528 45.248 18.752l274.752 274.752 274.752-274.752c12.224-12.224 28.608-18.752 45.248-18.752 8.256 0 16.576 1.6 24.448 4.864 23.936 9.92 39.552 33.28 39.552 59.136v896c0 35.328-28.672 64-64 64h-640c-35.328 0-64-28.672-64-64v-896c0-25.856 15.616-49.216 39.488-59.136zM512 320l-320-320v704h640v-704l-320 320zM832 896v-128h-640v128h640z"/>
</svg>
