<!-- icon_document icon -->
<svg xmlns="http://www.w3.org/2000/svg" viewBox="0 -64 1024 1024">
  <path d="M128-64h770.688c35.328 0 64 28.672 64 64v896c0 35.328-28.672 64-64 64h-770.688c-35.328 0-64-28.672-64-64v-896c0-35.328 28.672-64 64-64zM480 768h258.688c17.664 0 32-14.336 32-32s-14.336-32-32-32h-258.688c-17.664 0-32 14.336-32 32s14.336 32 32 32zM288 576h450.688c17.664 0 32-14.336 32-32s-14.336-32-32-32h-450.688c-17.664 0-32 14.336-32 32s14.336 32 32 32zM288 384h450.688c17.664 0 32-14.336 32-32s-14.336-32-32-32h-450.688c-17.664 0-32 14.336-32 32s14.336 32 32 32zM288 192h450.688c17.664 0 32-14.336 32-32s-14.336-32-32-32h-450.688c-17.664 0-32 14.336-32 32s14.336 32 32 32z"/>
</svg>
