<!-- file-medical icon -->
<svg xmlns="http://www.w3.org/2000/svg" viewBox="0 -64 1024 1024">
  <path d="M828.8 730.666l-115.2 115.2c-6.4 6.4-12.8 9.6-19.2 9.6h-19.2v-163.2h163.2v9.6c0 9.6-3.2 25.6-9.6 28.8zM835.2 625.066h-163.2c-38.4 0-64 22.4-64 64v166.4h-384c-35.2 0-35.2 0-35.2-41.6v-777.6c0-41.6 0-41.6 41.6-41.6h563.2c44.8 0 41.6 0 41.6 41.6v588.8zM675.2 311.466c0-3.2 0-6.4-3.2-9.6s-6.4-3.2-9.6-3.2h-96v-96c0-3.2 0-6.4-3.2-9.6s-6.4-3.2-9.6-3.2h-83.2c-3.2 0-6.4 0-9.6 3.2s-3.2 6.4-3.2 9.6v96h-96c-3.2 0-6.4 0-9.6 3.2s-3.2 6.4-3.2 9.6v83.2c0 3.2 0 6.4 3.2 9.6s6.4 3.2 9.6 3.2h96v96c0 3.2 0 6.4 3.2 9.6s6.4 3.2 9.6 3.2h83.2c3.2 0 6.4 0 9.6-3.2s3.2-6.4 3.2-9.6v-96h96c3.2 0 6.4 0 9.6-3.2s3.2-6.4 3.2-9.6v-83.2z"/>
</svg>
