<!-- toggle icon -->
<svg xmlns="http://www.w3.org/2000/svg" viewBox="0 -64 1024 1024">
  <path d="M896 576h-768c-35.328 0-64-28.672-64-64v-128c0-35.328 28.672-64 64-64h768c35.328 0 64 28.672 64 64v128c0 35.328-28.672 64-64 64zM896 384h-768v128h768v-128zM896 256h-768c-35.328 0-64-28.672-64-64v-128c0-35.328 28.672-64 64-64h768c35.328 0 64 28.672 64 64v128c0 35.328-28.672 64-64 64zM896 64h-768v128h768v-128zM896 896h-768c-35.328 0-64-28.672-64-64v-128c0-35.328 28.672-64 64-64h768c35.328 0 64 28.672 64 64v128c0 35.328-28.672 64-64 64zM896 704h-768v128h768v-128z"/>
</svg>
