<!-- calculator icon -->
<svg xmlns="http://www.w3.org/2000/svg" viewBox="0 -64 1024 1024">
  <path d="M192-64h640c35.328 0 64 28.672 64 64v896c0 35.328-28.672 64-64 64h-640c-35.328 0-64-28.672-64-64v-896c0-35.328 28.672-64 64-64zM704 256c-35.328 0-64 28.672-64 64s28.672 64 64 64 64-28.672 64-64c0-35.328-28.672-64-64-64zM768 128c0-35.328-28.672-64-64-64s-64 28.672-64 64c0 35.328 28.672 64 64 64s64-28.672 64-64zM704 448c-35.328 0-64 28.672-64 64s28.672 64 64 64 64-28.672 64-64c0-35.328-28.672-64-64-64zM256 704v128h512v-128h-512zM512 256c-35.328 0-64 28.672-64 64s28.672 64 64 64 64-28.672 64-64c0-35.328-28.672-64-64-64zM576 128c0-35.328-28.672-64-64-64s-64 28.672-64 64c0 35.328 28.672 64 64 64s64-28.672 64-64zM512 448c-35.328 0-64 28.672-64 64s28.672 64 64 64 64-28.672 64-64c0-35.328-28.672-64-64-64zM320 576c35.328 0 64-28.672 64-64s-28.672-64-64-64-64 28.672-64 64c0 35.328 28.672 64 64 64zM320 384c35.328 0 64-28.672 64-64s-28.672-64-64-64-64 28.672-64 64c0 35.328 28.672 64 64 64zM320 192c35.328 0 64-28.672 64-64s-28.672-64-64-64-64 28.672-64 64c0 35.328 28.672 64 64 64z"/>
</svg>
