<!-- plus-line icon -->
<svg xmlns="http://www.w3.org/2000/svg" viewBox="0 -64 1024 1024">
  <path d="M544 896c-265.088 0-480-214.912-480-480s214.912-480 480-480 480 214.912 480 480-214.912 480-480 480zM544 0c-229.376 0-416 186.624-416 416s186.624 416 416 416 416-186.624 416-416-186.624-416-416-416zM800 448h-224v224c0 17.664-14.336 32-32 32s-32-14.336-32-32v-224h-224c-17.664 0-32-14.336-32-32s14.336-32 32-32h224v-224c0-17.664 14.336-32 32-32s32 14.336 32 32v224h224c17.664 0 32 14.336 32 32s-14.336 32-32 32z"/>
</svg>
