<!-- icon_cloud-upload icon -->
<svg xmlns="http://www.w3.org/2000/svg" viewBox="0 -64 1024 1024">
  <path d="M832 448c-2.24 0-4.352-0.576-6.528-0.64 4.288 20.864 6.528 42.496 6.528 64.64 0 176.704-143.296 320-320 320s-320-143.296-320-320c0-1.088 0.32-2.112 0.32-3.2-108.544-15.488-192.32-107.968-192.32-220.8 0-123.712 100.288-224 224-224h160.512c35.072 0 63.488 28.416 63.488 63.488v192.512h-135.808l199.808 256 199.808-256h-135.808v-192.512c0-35.072 28.416-63.488 63.488-63.488h192.512c106.048 0 192 85.952 192 192s-85.952 192-192 192z"/>
</svg>
