<!-- caret-line-two-right icon -->
<svg xmlns="http://www.w3.org/2000/svg" viewBox="0 -64 1024 1024">
  <path d="M790.592 438.016l-189.376 214.080c-12.544 12.544-32.96 12.544-45.504 0s-12.544-32.96 0-45.504l169.6-191.744-169.6-191.744c-12.544-12.544-12.544-32.96 0-45.504s32.96-12.544 45.504 0l189.376 214.080c6.4 6.4 9.472 14.784 9.344 23.168 0.064 8.384-2.944 16.768-9.344 23.168zM570.432 414.848c0.128 8.384-2.944 16.832-9.344 23.168l-189.376 214.080c-12.544 12.544-32.96 12.544-45.504 0s-12.544-32.96 0-45.504l169.6-191.744-169.6-191.744c-12.544-12.544-12.544-32.96 0-45.504s32.96-12.544 45.504 0l189.376 214.080c6.4 6.336 9.472 14.72 9.344 23.168zM544 896c-265.088 0-480-214.912-480-480s214.912-480 480-480 480 214.912 480 480-214.912 480-480 480zM544 0c-229.376 0-416 186.624-416 416s186.624 416 416 416 416-186.624 416-416-186.624-416-416-416z"/>
</svg>
