<!-- triangle-fill-left icon -->
<svg xmlns="http://www.w3.org/2000/svg" viewBox="0 -64 1024 1024">
  <path d="M544 896c-265.088 0-480-214.912-480-480s214.912-480 480-480 480 214.912 480 480-214.912 480-480 480zM640 221.12c0-7.872-4.16-14.912-10.816-19.968-0.128-0.128-0.128-0.256-0.256-0.32-13.888-10.88-36.416-10.88-50.304 0l-246.912 195.456c-0.384 0.32-0.896 0.384-1.28 0.704-13.888 10.88-13.888 28.608 0 39.488l248.128 195.968c13.888 10.88 36.416 10.88 50.304 0l-0.128-0.128c6.848-5.056 11.264-12.16 11.264-20.16v-391.040z"/>
</svg>
