<!-- bar-counters icon -->
<svg xmlns="http://www.w3.org/2000/svg" viewBox="0 -64 1024 1024">
  <path d="M992 576h-960c-17.664 0-32-14.336-32-32s14.336-32 32-32h960c17.664 0 32 14.336 32 32s-14.336 32-32 32zM32 128h832c17.664 0 32 14.336 32 32s-14.336 32-32 32h-832c-17.664 0-32-14.336-32-32s14.336-32 32-32zM32 704h768c17.664 0 32 14.336 32 32s-14.336 32-32 32h-768c-17.664 0-32-14.336-32-32s14.336-32 32-32zM32 320h576c17.664 0 32 14.336 32 32s-14.336 32-32 32h-576c-17.664 0-32-14.336-32-32s14.336-32 32-32z"/>
</svg>
