<!-- sidebar icon -->
<svg xmlns="http://www.w3.org/2000/svg" viewBox="0 -64 1024 1024">
  <path d="M960 960h-896c-35.328 0-64-28.672-64-64v-896c0-35.328 28.672-64 64-64h896c35.328 0 64 28.672 64 64v896c0 35.328-28.672 64-64 64zM64 0v896h576v-896h-576zM960 0h-256v896h256v-896zM800 704h64c17.664 0 32 14.336 32 32s-14.336 32-32 32h-64c-17.664 0-32-14.336-32-32s14.336-32 32-32zM800 512h64c17.664 0 32 14.336 32 32s-14.336 32-32 32h-64c-17.664 0-32-14.336-32-32s14.336-32 32-32zM800 320h64c17.664 0 32 14.336 32 32s-14.336 32-32 32h-64c-17.664 0-32-14.336-32-32s14.336-32 32-32zM864 192h-64c-17.664 0-32-14.336-32-32s14.336-32 32-32h64c17.664 0 32 14.336 32 32s-14.336 32-32 32z"/>
</svg>
