<!-- icon_ul icon -->
<svg xmlns="http://www.w3.org/2000/svg" viewBox="0 -64 1024 1024">
  <path d="M352 448h512c17.664 0 32 14.336 32 32s-14.336 32-32 32h-512c-17.664 0-32-14.336-32-32s14.336-32 32-32zM352 704h512c17.664 0 32 14.336 32 32s-14.336 32-32 32h-512c-17.664 0-32-14.336-32-32s14.336-32 32-32zM352 192h512c17.664 0 32 14.336 32 32s-14.336 32-32 32h-512c-17.664 0-32-14.336-32-32s14.336-32 32-32zM128 736c0-17.673 14.327-32 32-32s32 14.327 32 32c0 17.673-14.327 32-32 32s-32-14.327-32-32zM128 480c0-17.673 14.327-32 32-32s32 14.327 32 32c0 17.673-14.327 32-32 32s-32-14.327-32-32zM128 224c0-17.673 14.327-32 32-32s32 14.327 32 32c0 17.673-14.327 32-32 32s-32-14.327-32-32z"/>
</svg>
