<!-- caret-two-left icon -->
<svg xmlns="http://www.w3.org/2000/svg" viewBox="0 -64 1024 1024">
  <path d="M265.408 425.984l189.376-214.080c12.544-12.544 32.96-12.544 45.504 0s12.544 32.96 0 45.504l-169.6 191.744 169.6 191.744c12.544 12.544 12.544 32.96 0 45.504s-32.96 12.544-45.504 0l-189.376-214.016c-6.4-6.4-9.408-14.784-9.344-23.168-0.064-8.384 2.944-16.832 9.344-23.232zM729.856 686.464c-12.544 12.544-32.96 12.544-45.504 0l-189.44-214.080c-6.4-6.4-9.472-14.784-9.344-23.168-0.064-8.384 2.944-16.832 9.344-23.232l189.376-214.080c12.544-12.544 32.96-12.544 45.504 0s12.544 32.96 0 45.504l-169.6 191.744 169.6 191.744c12.608 12.608 12.608 33.024 0.064 45.568z"/>
</svg>
