<!-- arrow_left-down icon -->
<svg xmlns="http://www.w3.org/2000/svg" viewBox="0 -64 1024 1024">
  <path d="M160 448c-17.664 0-32-14.336-32-32v-320c0-0.064 0-0.064 0-0.128 0-4.16 0.832-8.256 2.432-12.096 1.536-3.776 3.84-7.168 6.656-10.048 0.128-0.128 0.128-0.256 0.256-0.384 0.064-0.064 0.192-0.064 0.256-0.192 2.88-2.816 6.336-5.184 10.112-6.72 3.968-1.6 8.128-2.432 12.288-2.432h320c17.664 0 32 14.336 32 32s-14.336 32-32 32h-242.752l649.408 649.344c12.48 12.48 12.48 32.768 0 45.248s-32.768 12.48-45.248 0l-649.408-649.344v242.752c0 17.664-14.336 32-32 32z"/>
</svg>
