<!-- icon_zoom-out_alt icon -->
<svg xmlns="http://www.w3.org/2000/svg" viewBox="0 -64 1024 1024">
  <path d="M608 960c-229.76 0-416-186.24-416-416 0-98.88 34.624-189.504 92.224-260.928l-271.168-271.168c-17.344-17.344-17.344-45.504 0-62.848s45.504-17.344 62.848 0l271.168 271.168c71.424-57.6 162.048-92.224 260.928-92.224 229.76 0 416 186.24 416 416s-186.24 416-416 416zM608 192c-194.112 0-352 157.888-352 352s157.888 352 352 352 352-157.888 352-352-157.888-352-352-352zM800 576h-384c-17.664 0-32-14.336-32-32s14.336-32 32-32h384c17.664 0 32 14.336 32 32s-14.336 32-32 32z"/>
</svg>
