<!-- icon_menu-circle_alt icon -->
<svg xmlns="http://www.w3.org/2000/svg" viewBox="0 -64 1024 1024">
  <path d="M544 896c-265.088 0-480-214.912-480-480s214.912-480 480-480 480 214.912 480 480-214.912 480-480 480zM800 192h-512c-17.664 0-32 14.336-32 32s14.336 32 32 32h512c17.664 0 32-14.336 32-32s-14.336-32-32-32zM800 384h-512c-17.664 0-32 14.336-32 32s14.336 32 32 32h512c17.664 0 32-14.336 32-32s-14.336-32-32-32zM800 576h-512c-17.664 0-32 14.336-32 32s14.336 32 32 32h512c17.664 0 32-14.336 32-32s-14.336-32-32-32z"/>
</svg>
